<svg width="16" height="16" viewBox="0 0 16 16" fill="none" xmlns="http://www.w3.org/2000/svg">
<path fill-rule="evenodd" clip-rule="evenodd" d="M4 1L3 2V14L4 15H13L14 14V5L13.7071 4.29289L10.7071 1.29289L10 1H4ZM4 14V2H9V6H13V14H4ZM13 5L10 2V5H13Z" fill="#C5C5C5"/>
<path d="M10.5 8.33333V7H8.5V10.5333C8.3 10.4 8.1 10.3333 7.83333 10.3333C7.47971 10.3333 7.14057 10.4738 6.89052 10.7239C6.64048 10.9739 6.5 11.313 6.5 11.6667C6.5 12.0203 6.64048 12.3594 6.89052 12.6095C7.14057 12.8595 7.47971 13 7.83333 13C8.18696 13 8.52609 12.8595 8.77614 12.6095C9.02619 12.3594 9.16667 12.0203 9.16667 11.6667V8.33333H10.5Z" fill="#C5C5C5"/>
</svg>
