<svg xmlns="http://www.w3.org/2000/svg" width="16" height="16" fill="#c5c5c5" xmlns:v="https://vecta.io/nano"><path d="M9.707 1.293l3 3L13 5v9l-1 1h-2v-1h2V6H8V2H3v8H2V2l1-1h6l.707.293zM9 5h3L9 2v3zm-6.938 8.926c0-.125-.025-.223-.074-.295s-.116-.126-.205-.156-.19-.046-.308-.046h-.346v.959h.31a1.45 1.45 0 0 0 .233-.018.6.6 0 0 0 .2-.067c.06-.033.106-.079.138-.139a.51.51 0 0 0 .051-.239zm-.133-1.487c0-.14-.044-.241-.133-.303s-.223-.095-.408-.095h-.259v.823h.285c.181 0 .312-.033.392-.1s.123-.175.123-.326zm1 1.521c0 .205-.039.375-.118.51a.85.85 0 0 1-.323.318 1.51 1.51 0 0 1-.469.164c-.174.033-.358.049-.551.049H.287v-3.554h1.126a2.78 2.78 0 0 1 .518.046 1.4 1.4 0 0 1 .436.149.77.77 0 0 1 .297.28c.074.116.11.261.11.433a.73.73 0 0 1-.09.369.77.77 0 0 1-.238.254 1.05 1.05 0 0 1-.323.141 1.35 1.35 0 0 1 .374.121.76.76 0 0 1 .308.261c.081.116.123.269.123.459zm2.199.274H4.086L3.899 15H3.02l1.087-3.554h1.021L6.215 15h-.9l-.187-.767zm-.908-.61h.769l-.385-1.572-.385 1.572zm3.886-1.533V15h-.841v-2.91h-.997v-.644h2.877l-.087.644h-.951z"/></svg>