<svg xmlns="http://www.w3.org/2000/svg" width="16" height="16" fill="#c5c5c5" xmlns:v="https://vecta.io/nano"><path d="M9.707 1.293l3 3L13 5v9l-1 1H7v-1h5V6H8V2H3v8H2V2l1-1h6l.707.293zM9 5h3L9 2v3zm-7.462 6.356c.424 0 .744.164.959.492s.326.782.326 1.367-.109 1.045-.326 1.377-.535.495-.959.495-.749-.165-.964-.495-.321-.791-.321-1.377.107-1.04.321-1.367.537-.492.964-.492zm0 .587c-.181 0-.314.097-.397.292s-.126.52-.126.979l.023.654a1.39 1.39 0 0 0 .085.39.37.37 0 0 0 .159.192.57.57 0 0 0 .256.051.38.38 0 0 0 .295-.123c.077-.082.133-.217.169-.405s.054-.443.054-.759c0-.349-.015-.615-.046-.798s-.084-.308-.159-.374-.178-.1-.313-.1zm.403.113l.208.444-.949 1.959-.233-.364.974-2.039zm3.297-.61v3.451h-.79v-2.654l-.731.456-.344-.556 1.146-.697h.718zm.664 2.941V15h-2.31v-.613h2.31z"/></svg>