<svg width="16" height="16" viewBox="0 0 16 16" fill="none" xmlns="http://www.w3.org/2000/svg">
<path fill-rule="evenodd" clip-rule="evenodd" d="M4 1L3 2V14L4 15H13L14 14V5L13.7071 4.29289L10.7071 1.29289L10 1H4ZM4 14V2H9V6H13V14H4ZM13 5L10 2V5H13Z" fill="#C5C5C5"/>
<path d="M9.79375 10.9888L9.95125 11.9038C9.85375 11.9563 9.69625 12.005 9.48625 12.05C9.2725 12.0988 9.02125 12.125 8.7325 12.125C7.90375 12.11 7.28125 11.8625 6.865 11.39C6.4375 10.9138 6.235 10.31 6.235 9.57875C6.25 8.7125 6.505 8.04875 7 7.58375C7.48 7.115 8.095 6.875 8.8375 6.875C9.11875 6.875 9.3625 6.90125 9.565 6.94625C9.7675 6.99125 9.9175 7.04 10.015 7.09625L9.79 8.03L9.4 7.9025C9.25 7.865 9.07375 7.84625 8.875 7.84625C8.44375 7.8425 8.08375 7.98125 7.8025 8.25875C7.5175 8.5325 7.375 8.9525 7.36 9.51125C7.36375 10.0213 7.49875 10.4188 7.765 10.7113C8.03125 11 8.4025 11.15 8.88625 11.1538L9.385 11.1088C9.54625 11.0788 9.68125 11.0375 9.79375 10.9888Z" fill="#C5C5C5"/>
</svg>
