<svg xmlns="http://www.w3.org/2000/svg" width="16" height="16" fill="none" xmlns:v="https://vecta.io/nano"><g clip-path="url(#A)"><path d="M7 10.647l.273 1.627c-.173.093-.453.18-.827.26-.38.087-.827.133-1.34.133-1.473-.027-2.58-.467-3.32-1.307-.747-.847-1.12-1.92-1.12-3.22C.7 6.6 1.147 5.42 2 4.593c.88-.833 1.973-1.26 3.293-1.26.5 0 .933.047 1.293.127s.627.167.8.267L7 5.387l-.707-.227a3.83 3.83 0 0 0-.927-.1c-.773-.007-1.413.24-1.913.733-.507.487-.767 1.233-.787 2.227 0 .907.247 1.613.72 2.133.473.513 1.14.78 1.993.787l.887-.08c.287-.053.527-.127.733-.213zm.333-3.313h1.333V6H10v1.333h1.333v1.333H10V10H8.667V8.667H7.333V7.333zm4.667 0h1.333V6h1.333v1.333H16v1.333h-1.333V10h-1.333V8.667H12V7.333z" fill="#c5c5c5"/></g><defs><clipPath id="A"><path fill="#fff" d="M0 0h16v16H0z"/></clipPath></defs></svg>