<svg width="16" height="16" viewBox="0 0 16 16" fill="none" xmlns="http://www.w3.org/2000/svg">
<path fill-rule="evenodd" clip-rule="evenodd" d="M4 1L3 2V14L4 15H13L14 14V5L13.7071 4.29289L10.7071 1.29289L10 1H4ZM4 14V2H9V6H13V14H4ZM13 5L10 2V5H13Z" fill="#C5C5C5"/>
<path d="M8.0625 10.6579L8.18208 11.3696C8.10625 11.4104 7.98375 11.4483 7.82041 11.4833C7.65416 11.5212 7.45875 11.5417 7.23416 11.5417C6.58958 11.53 6.10541 11.3375 5.78166 10.97C5.455 10.5996 5.29166 10.13 5.29166 9.56125C5.30625 8.8875 5.50166 8.37125 5.875 8.00958C6.26 7.645 6.73833 7.45833 7.31583 7.45833C7.53458 7.45833 7.72416 7.47875 7.88166 7.51375C8.03916 7.54875 8.15583 7.58667 8.23166 7.63042L8.0625 8.35667L7.75333 8.2575C7.63666 8.22833 7.5025 8.21375 7.34791 8.21375C7.00958 8.21083 6.72958 8.31875 6.51083 8.53458C6.28916 8.7475 6.17541 9.07417 6.16666 9.50875C6.16666 9.90542 6.27458 10.2146 6.48166 10.4421C6.68875 10.6667 6.98041 10.7833 7.35375 10.7862L7.74166 10.7512C7.86708 10.7279 7.97208 10.6958 8.0625 10.6579ZM8.20833 9.20833H8.79166V8.625H9.375V9.20833H9.95833V9.79167H9.375V10.375H8.79166V9.79167H8.20833V9.20833ZM10.25 9.20833H10.8333V8.625H11.4167V9.20833H12V9.79167H11.4167V10.375H10.8333V9.79167H10.25V9.20833Z" fill="#C5C5C5"/>
</svg>
