<svg xmlns="http://www.w3.org/2000/svg" width="16" height="16" fill="none" xmlns:v="https://vecta.io/nano"><path d="M7.667 10.647l.273 1.627c-.173.093-.453.18-.827.26-.38.087-.827.133-1.34.133-1.473-.027-2.58-.467-3.32-1.307-.747-.847-1.12-1.92-1.12-3.22.033-1.54.48-2.72 1.333-3.547.88-.833 1.973-1.26 3.293-1.26.5 0 .933.047 1.293.127s.627.167.8.267l-.387 1.66-.707-.227a3.83 3.83 0 0 0-.927-.1c-.773-.007-1.413.24-1.913.733-.507.487-.767 1.233-.787 2.227 0 .907.247 1.613.72 2.133.473.513 1.14.78 1.993.787l.887-.08c.287-.053.527-.127.733-.213zm1.593 2.02L9.667 10h-1l.227-1.333h1l.213-1.333h-1L9.333 6h1l.407-2.667h1.333L11.667 6h.667l.407-2.667h1.333L13.667 6h1l-.227 1.333h-1l-.213 1.333h1L14 10h-1l-.407 2.667H11.26L11.667 10H11l-.407 2.667H9.26zm1.967-4h.667l.213-1.333h-.667l-.213 1.333z" fill="#c5c5c5"/></svg>