<svg width="16" height="16" viewBox="0 0 16 16" fill="none" xmlns="http://www.w3.org/2000/svg">
<path fill-rule="evenodd" clip-rule="evenodd" d="M4 1L3 2V14L4 15H13L14 14V5L13.7071 4.29289L10.7071 1.29289L10 1H4ZM4 14V2H9V6H13V14H4ZM13 5L10 2V5H13Z" fill="#C5C5C5"/>
<path d="M8.3125 10.9888L8.46625 11.9038C8.36875 11.9563 8.21125 12.005 8.00125 12.05C7.7875 12.0988 7.53625 12.125 7.2475 12.125C6.41875 12.11 5.79625 11.8625 5.38 11.39C4.96 10.9138 4.75 10.31 4.75 9.57875C4.76875 8.7125 5.02 8.04875 5.5 7.58375C5.995 7.115 6.61 6.875 7.3525 6.875C7.63375 6.875 7.8775 6.90125 8.08 6.94625C8.2825 6.99125 8.4325 7.04 8.53 7.09625L8.3125 8.03L7.915 7.9025C7.765 7.865 7.5925 7.84625 7.39375 7.84625C6.95875 7.8425 6.59875 7.98125 6.3175 8.25875C6.0325 8.5325 5.88625 8.9525 5.875 9.51125C5.875 10.0213 6.01375 10.4188 6.28 10.7113C6.54625 11 6.92125 11.15 7.40125 11.1538L7.9 11.1088C8.06125 11.0788 8.19625 11.0375 8.3125 10.9888ZM9.20875 12.125L9.4375 10.625H8.875L9.0025 9.875H9.565L9.685 9.125H9.1225L9.25 8.375H9.8125L10.0413 6.875H10.7913L10.5625 8.375H10.9375L11.1663 6.875H11.9163L11.6875 8.375H12.25L12.1225 9.125H11.56L11.44 9.875H12.0025L11.875 10.625H11.3125L11.0838 12.125H10.3338L10.5625 10.625H10.1875L9.95875 12.125H9.20875ZM10.315 9.875H10.69L10.81 9.125H10.435L10.315 9.875Z" fill="#C5C5C5"/>
</svg>
