<svg xmlns="http://www.w3.org/2000/svg" width="16" height="16" fill="#c5c5c5" xmlns:v="https://vecta.io/nano"><path d="M9.707 1.293l3 3L13 5v3h-1V6H8V2H3v12h5v1H3l-1-1V2l1-1h6l.707.293zM9 5h3L9 2v3zm2.589 4c-.041-.001-.081.013-.112.038s-.053.062-.061.102l-.127.88a3.33 3.33 0 0 0-.567.313L9.896 10c-.073 0-.16 0-.207.087l-.667 1.153c-.04.073-.027.16.04.213l.707.547a2.8 2.8 0 0 0 0 .667l-.707.547c-.03.026-.05.061-.058.1s-.001.079.018.114l.667 1.153c.04.087.127.087.207.087l.827-.333a2.74 2.74 0 0 0 .567.313l.127.88c.013.08.08.14.173.14h1.333a.17.17 0 0 0 .16-.14l.127-.88c.2-.087.38-.193.56-.313l.82.333c.087 0 .173 0 .22-.087l.667-1.153c.019-.035.025-.075.018-.114s-.028-.074-.058-.1l-.713-.547.027-.333a1.87 1.87 0 0 0-.027-.333l.707-.547c.03-.026.05-.061.058-.1s.001-.079-.018-.114l-.667-1.153c-.04-.087-.127-.087-.213-.087l-.82.333c-.18-.12-.36-.233-.567-.313l-.127-.88c-.004-.038-.022-.073-.05-.099s-.065-.04-.103-.041m-.667 2.333a1 1 0 1 1 0 2c-.56 0-1-.447-1-1a1 1 0 0 1 1-1z"/></svg>