<svg width="16" height="16" viewBox="0 0 16 16" fill="none" xmlns="http://www.w3.org/2000/svg">
<path fill-rule="evenodd" clip-rule="evenodd" d="M4 1L3 2V14L4 15H13L14 14V5L13.7071 4.29289L10.7071 1.29289L10 1H4ZM4 14V2H9V6H13V14H4ZM13 5L10 2V5H13Z" fill="#C5C5C5"/>
<path d="M8.125 8H8.875V11H8.125V8ZM6.87625 8H5.62375C5.32375 8 5.125 8.25125 5.125 8.49875V10.5013C5.125 10.7488 5.32375 11 5.62375 11H6.87625C7.17625 11 7.375 10.7488 7.375 10.5013V9.5H6.625V10.25H5.875V8.75H7.375V8.49875C7.375 8.25125 7.17625 8 6.87625 8ZM11.875 8.75V8H9.625V11H10.375V10.25H11.3125V9.5H10.375V8.75H11.875Z" fill="#C5C5C5"/>
</svg>
