<svg xmlns="http://www.w3.org/2000/svg" width="16" height="16" fill="none" xmlns:v="https://vecta.io/nano"><path fill-rule="evenodd" d="M1.5 2l-.5.5v3.748c.307-.252.642-.472 1-.654V3h4.289l.853.853.354.146h6.495v1.004H7.49l-.354.146-.351.351c.316.145.615.319.895.519l.017-.017h6.283v1.493 3.997 1.509H9.388a5.51 5.51 0 0 1-.658 1h5.749l.5-.5V9.006l.011-.011V3.499l-.5-.5H7.703l-.853-.853L6.496 2H1.5z" fill="#C5C5C5"/><g clip-path="url(#A)"><path d="M4.5 6.75a3.75 3.75 0 0 0-2.652 1.098A3.75 3.75 0 0 0 .75 10.5a3.76 3.76 0 0 0 2.565 3.563c.188.03.248-.086.248-.187v-.634c-1.039.225-1.26-.502-1.26-.502-.173-.435-.416-.551-.416-.551-.341-.232.026-.225.026-.225.375.026.574.386.574.386.326.57.878.401 1.091.311.034-.244.131-.409.236-.502-.832-.094-1.706-.416-1.706-1.845a1.45 1.45 0 0 1 .386-1.016c-.038-.094-.169-.484.038-.99 0 0 .315-.101 1.031.383.296-.083.619-.124.938-.124s.641.041.938.124c.716-.484 1.031-.383 1.031-.383.206.506.075.896.037.99a1.45 1.45 0 0 1 .386 1.016c0 1.432-.878 1.748-1.714 1.841.135.116.259.345.259.694v1.027c0 .101.06.221.251.188A3.76 3.76 0 0 0 8.25 10.5a3.75 3.75 0 0 0-1.098-2.652A3.75 3.75 0 0 0 4.5 6.75z" fill="#C5C5C5"/></g><defs><clipPath id="A"><path fill="#fff" transform="translate(0 6)" d="M0 0h9v9H0z"/></clipPath></defs></svg>