<svg width="16" height="16" viewBox="0 0 16 16" fill="none" xmlns="http://www.w3.org/2000/svg">
<path d="M1.76 6.88667L1.74667 6.84667L1.89333 6.66667L1.97333 6.61333H4.53333L4.55333 6.66667L4.43333 6.84L4.36 6.88L1.76 6.88667ZM0.686666 7.54L0.666666 7.50667L0.813333 7.31333L0.893333 7.27333H4.16L4.19333 7.33333L4.14 7.49333L4.07333 7.54H0.686666ZM2.42 8.2L2.39333 8.16L2.5 7.97333L2.56667 7.93333H4L4.04667 7.98L4.03333 8.14667L3.98 8.2H2.42ZM9.85333 6.76L8.66667 7.07333C8.54 7.1 8.53333 7.10667 8.44 7C8.33333 6.88 8.26 6.80667 8.10667 6.73333C7.66667 6.50667 7.22 6.57333 6.81333 6.83333C6.33333 7.15333 6.07333 7.61333 6.08 8.2C6.08667 8.77333 6.48 9.24667 7.04667 9.33333C7.53333 9.39333 7.94 9.22 8.26667 8.85333L8.46 8.59333H7.08C6.93333 8.59333 6.9 8.5 6.94667 8.38L7.31333 7.59333C7.33333 7.55333 7.38667 7.48 7.49333 7.48H9.78667C9.88667 7.14667 10.06 6.84 10.2867 6.54C10.8067 5.85333 11.44 5.49333 12.2867 5.33333C13 5.21333 13.7067 5.28667 14.3333 5.71333C14.8933 6.1 15.2467 6.62 15.3333 7.30667C15.46 8.27333 15.1733 9.06 14.5067 9.74C14.0333 10.22 13.4533 10.52 12.7933 10.6667L12.22 10.72C11.5667 10.7067 10.9733 10.52 10.4733 10.0867C10.1267 9.78667 9.88667 9.42667 9.76667 9C9.66667 9.16 9.58667 9.31333 9.47333 9.46667C8.96 10.1467 8.28667 10.5667 7.43333 10.6667C6.73333 10.7733 6.08 10.6333 5.50667 10.2067C4.98 9.80667 4.66667 9.27333 4.6 8.61333C4.50667 7.83333 4.73333 7.13333 5.20667 6.52C5.71333 5.85333 6.38667 5.43333 7.21333 5.28C7.88 5.16 8.52667 5.24 9.10667 5.62667C9.48667 5.88 9.75333 6.22667 9.93333 6.64C9.96 6.7 9.93333 6.74 9.85333 6.76ZM13.9267 7.82667L13.9067 7.58667C13.78 6.88 13.1267 6.48 12.4467 6.63333C11.7733 6.78 11.3333 7.2 11.1933 7.87333C11.0667 8.43333 11.3333 9 11.8467 9.22667C12.24 9.4 12.64 9.37333 13.02 9.18667C13.58 8.9 13.8933 8.44 13.9267 7.82667Z" fill="#C5C5C5"/>
</svg>
