<svg width="16" height="16" viewBox="0 0 16 16" fill="none" xmlns="http://www.w3.org/2000/svg">
<path fill-rule="evenodd" clip-rule="evenodd" d="M4 1L3 2V14L4 15H13L14 14V5L13.7071 4.29289L10.7071 1.29289L10 1H4ZM4 14V2H9V6H13V14H4ZM13 5L10 2V5H13Z" fill="#C5C5C5"/>
<path d="M4.99 8.87375L4.9825 8.85125L5.065 8.75L5.11 8.72H6.55L6.56125 8.75L6.49375 8.8475L6.4525 8.87L4.99 8.87375ZM4.38625 9.24125L4.375 9.2225L4.4575 9.11375L4.5025 9.09125H6.34L6.35875 9.125L6.32875 9.215L6.29125 9.24125H4.38625ZM5.36125 9.6125L5.34625 9.59L5.40625 9.485L5.44375 9.4625H6.25L6.27625 9.48875L6.26875 9.5825L6.23875 9.6125H5.36125ZM9.5425 8.8025L8.875 8.97875C8.80375 8.99375 8.8 8.9975 8.7475 8.9375C8.6875 8.87 8.64625 8.82875 8.56 8.7875C8.3125 8.66 8.06125 8.6975 7.8325 8.84375C7.5625 9.02375 7.41625 9.2825 7.42 9.6125C7.42375 9.935 7.645 10.2013 7.96375 10.25C8.2375 10.2838 8.46625 10.1863 8.65 9.98L8.75875 9.83375H7.9825C7.9 9.83375 7.88125 9.78125 7.9075 9.71375L8.11375 9.27125C8.125 9.24875 8.155 9.2075 8.215 9.2075H9.505C9.56125 9.02 9.65875 8.8475 9.78625 8.67875C10.0788 8.2925 10.435 8.09 10.9113 8C11.3125 7.9325 11.71 7.97375 12.0625 8.21375C12.3775 8.43125 12.5763 8.72375 12.625 9.11C12.6963 9.65375 12.535 10.0963 12.16 10.4788C11.8938 10.7488 11.5675 10.9175 11.1963 11L10.8738 11.03C10.5063 11.0225 10.1725 10.9175 9.89125 10.6738C9.69625 10.505 9.56125 10.3025 9.49375 10.0625C9.4375 10.1525 9.3925 10.2388 9.32875 10.325C9.04 10.7075 8.66125 10.9438 8.18125 11C7.7875 11.06 7.42 10.9813 7.0975 10.7413C6.80125 10.5163 6.625 10.2163 6.5875 9.845C6.535 9.40625 6.6625 9.0125 6.92875 8.6675C7.21375 8.2925 7.5925 8.05625 8.0575 7.97C8.4325 7.9025 8.79625 7.9475 9.1225 8.165C9.33625 8.3075 9.48625 8.5025 9.5875 8.735C9.6025 8.76875 9.5875 8.79125 9.5425 8.8025ZM11.8338 9.4025L11.8225 9.2675C11.7513 8.87 11.3838 8.645 11.0013 8.73125C10.6225 8.81375 10.375 9.05 10.2963 9.42875C10.225 9.74375 10.375 10.0625 10.6638 10.19C10.885 10.2875 11.11 10.2725 11.3238 10.1675C11.6388 10.0063 11.815 9.7475 11.8338 9.4025Z" fill="#C5C5C5"/>
</svg>
