<svg xmlns="http://www.w3.org/2000/svg" width="16" height="16" fill="none" xmlns:v="https://vecta.io/nano"><path d="M1.76 6.887l-.013-.04.147-.18.08-.053h2.56l.02.053-.12.173-.073.04-2.6.007zM.687 7.54l-.02-.033.147-.193.08-.04H4.16l.033.06-.053.16-.067.047H.687zm1.733.66l-.027-.04.107-.187.067-.04H4l.047.047-.013.167-.053.053H2.42zm7.433-1.44l-1.187.313C8.54 7.1 8.533 7.107 8.44 7c-.107-.12-.18-.193-.333-.267-.44-.227-.887-.16-1.293.1-.48.32-.74.78-.733 1.367.007.573.4 1.047.967 1.133.487.06.893-.113 1.22-.48l.193-.26H7.08c-.147 0-.18-.093-.133-.213l.367-.787c.02-.04.073-.113.18-.113h2.293c.1-.333.273-.64.5-.94.52-.687 1.153-1.047 2-1.207.713-.12 1.42-.047 2.047.38.56.387.913.907 1 1.593.127.967-.16 1.753-.827 2.433-.473.48-1.053.78-1.713.927l-.573.053c-.653-.013-1.247-.2-1.747-.633A2.21 2.21 0 0 1 9.767 9l-.293.467c-.513.68-1.187 1.1-2.04 1.2-.7.107-1.353-.033-1.927-.46-.527-.4-.84-.933-.907-1.593-.093-.78.133-1.48.607-2.093a3.18 3.18 0 0 1 2.007-1.24c.667-.12 1.313-.04 1.893.347.38.253.647.6.827 1.013.027.06 0 .1-.08.12zm4.073 1.067l-.02-.24c-.127-.707-.78-1.107-1.46-.953-.673.147-1.113.567-1.253 1.24-.127.56.14 1.127.653 1.353.393.173.793.147 1.173-.04.56-.287.873-.747.907-1.36z" fill="#c5c5c5"/></svg>