<svg xmlns="http://www.w3.org/2000/svg" width="16" height="16" fill="none" xmlns:v="https://vecta.io/nano"><g clip-path="url(#A)"><path fill-rule="evenodd" d="M8 .833A7.17 7.17 0 0 0 .833 8 7.17 7.17 0 0 0 8 15.167 7.17 7.17 0 0 0 15.167 8 7.17 7.17 0 0 0 8 .833zM1.833 8c0-1.635.65-3.204 1.806-4.36S6.365 1.833 8 1.833c1.523 0 2.917.552 3.993 1.467l-.013.013-8.667 8.667-.013.013C2.35 10.88 1.83 9.463 1.833 8zm2.173 4.7c1.18 1.006 2.696 1.53 4.245 1.468s3.019-.705 4.115-1.801 1.74-2.566 1.801-4.115-.463-3.065-1.468-4.245l-.013.013-8.667 8.667-.014.013z" fill="#c5c5c5"/></g><defs><clipPath id="A"><path fill="#fff" d="M0 0h16v16H0z"/></clipPath></defs></svg>