<svg xmlns="http://www.w3.org/2000/svg" width="16" height="16" fill="none" xmlns:v="https://vecta.io/nano"><path d="M11 4.053s-4.56 1.14-2.373 3.653c.647.74-.167 1.407-.167 1.407s1.633-.833.873-1.9c-.707-.98-1.24-1.467 1.667-3.16zm-2.98.8c2.7-2.133 1.313-3.52 1.313-3.52.56 2.2-1.973 2.867-2.887 4.24-.627.933.307 1.94 1.553 3.093-.473-1.133-2.147-2.107.02-3.813zm-1.773 6.793c-2.053.573 1.253 1.753 3.86.64a4.98 4.98 0 0 1-.733-.36 7.69 7.69 0 0 1-2.76.12c-.873-.107-.367-.4-.367-.4zm3.547-1.12c-1.167.253-2.373.313-3.56.173-.873-.087-.3-.513-.3-.513-2.267.753 1.253 1.6 4.4.68-.193-.073-.38-.2-.54-.34zm2.28 2.2s.38.313-.407.553c-1.52.453-6.287.593-7.607.02-.473-.207.42-.493.7-.553.153-.04.307-.053.46-.053-.527-.36-3.42.733-1.46 1.04 5.313.867 9.693-.4 8.313-1.007zm-1.827-3.24c.193-.127.4-.233.613-.327l-2.013.267a18.4 18.4 0 0 1-3.207.04c-1.567-.207.86-.8.86-.8a4.71 4.71 0 0 0-2.107.5c-1.367.667 3.4.967 5.853.32zm.6 1.613a.17.17 0 0 1-.053.067c3.34-.873 2.113-3.093.513-2.54a.47.47 0 0 0-.207.167 2.02 2.02 0 0 1 .287-.08c.8-.16 1.947 1.087-.54 2.387zm.087 3.073a19.78 19.78 0 0 1-6.08.093s.307.253 1.873.353c2.4.153 6.087-.087 6.173-1.22.02.007-.153.433-1.967.773z" fill="#c5c5c5"/></svg>