<svg width="16" height="16" viewBox="0 0 16 16" fill="none" xmlns="http://www.w3.org/2000/svg">
<path fill-rule="evenodd" clip-rule="evenodd" d="M4 1L3 2V14L4 15H13L14 14V5L13.7071 4.29289L10.7071 1.29289L10 1H4ZM4 14V2H9V6H13V14H4ZM13 5L10 2V5H13Z" fill="#C5C5C5"/>
<path d="M11.125 6.125H5.875C5.4625 6.125 5.125 6.4625 5.125 6.875V12.125C5.125 12.5375 5.4625 12.875 5.875 12.875H11.125C11.5375 12.875 11.875 12.5375 11.875 12.125V6.875C11.875 6.4625 11.5375 6.125 11.125 6.125ZM7.375 10.0625C7.375 10.475 7.0375 10.625 6.625 10.625C6.2125 10.625 5.875 10.475 5.875 10.0625V9.5H6.4375V10.0625H6.8125V8.375H7.375V10.0625ZM9.25 9.3125C9.25 9.6125 8.9875 9.875 8.6875 9.875H8.3125V10.625H7.75V8.375H8.6875C8.9875 8.375 9.25 8.6375 9.25 8.9375V9.3125ZM11.125 8.9375H10.1875V10.0625H10.5625V9.5H11.125V10.1375C11.125 10.4 10.9375 10.625 10.6375 10.625H10.15C9.85 10.625 9.6625 10.3625 9.6625 10.1375V8.9C9.625 8.6375 9.8125 8.375 10.1125 8.375H10.6C10.9 8.375 11.0875 8.6375 11.0875 8.8625V8.9375M8.3125 8.9375H8.6875V9.3125H8.3125V8.9375Z" fill="#C5C5C5"/>
</svg>
