<svg width="16" height="16" viewBox="0 0 16 16" fill="none" xmlns="http://www.w3.org/2000/svg">
<path d="M12.6667 2H3.33333C2.6 2 2 2.6 2 3.33333V12.6667C2 13.4 2.6 14 3.33333 14H12.6667C13.4 14 14 13.4 14 12.6667V3.33333C14 2.6 13.4 2 12.6667 2ZM6 9C6 9.73333 5.4 10 4.66667 10C3.93333 10 3.33333 9.73333 3.33333 9V8H4.33333V9H5V6H6V9ZM9.33333 7.66667C9.33333 8.2 8.86667 8.66667 8.33333 8.66667H7.66667V10H6.66667V6H8.33333C8.86667 6 9.33333 6.46667 9.33333 7V7.66667ZM12.6667 7H11V9H11.6667V8H12.6667V9.13333C12.6667 9.6 12.3333 10 11.8 10H10.9333C10.4 10 10.0667 9.53333 10.0667 9.13333V6.93333C10 6.46667 10.3333 6 10.8667 6H11.7333C12.2667 6 12.6 6.46667 12.6 6.86667V7M7.66667 7H8.33333V7.66667H7.66667V7Z" fill="#C5C5C5"/>
</svg>
