<svg xmlns="http://www.w3.org/2000/svg" width="16" height="16" fill="none" xmlns:v="https://vecta.io/nano"><path d="M2 2h12v12H2V2zm3.153 10.027c.267.567.793 1.033 1.693 1.033 1 0 1.687-.533 1.687-1.7V7.507H7.4v3.827c0 .573-.233.72-.6.72-.387 0-.547-.267-.727-.58l-.92.553zm3.987-.12c.333.653 1.007 1.153 2.06 1.153 1.067 0 1.867-.553 1.867-1.573 0-.94-.54-1.36-1.5-1.773l-.28-.12c-.487-.207-.693-.347-.693-.68 0-.273.207-.487.54-.487.32 0 .533.14.727.487l.873-.58c-.367-.64-.887-.887-1.6-.887-1.007 0-1.653.64-1.653 1.487 0 .92.54 1.353 1.353 1.7l.28.12c.52.227.827.367.827.753 0 .32-.3.553-.767.553-.553 0-.873-.287-1.113-.687l-.92.533z" fill="#C5C5C5"/></svg>