<svg width="16" height="16" viewBox="0 0 16 16" fill="none" xmlns="http://www.w3.org/2000/svg">
<path fill-rule="evenodd" clip-rule="evenodd" d="M4 1L3 2V14L4 15H13L14 14V5L13.7071 4.29289L10.7071 1.29289L10 1H4ZM4 14V2H9V6H13V14H4ZM13 5L10 2V5H13Z" fill="#C5C5C5"/>
<g clip-path="url(#clip0_2_133)">
<path d="M6.45833 6.875H7.04167V7.45833H6.45833V8.91667C6.45833 9.07138 6.39688 9.21975 6.28748 9.32915C6.17808 9.43854 6.02971 9.5 5.875 9.5C6.02971 9.5 6.17808 9.56146 6.28748 9.67085C6.39688 9.78025 6.45833 9.92862 6.45833 10.0833V11.5417H7.04167V12.125H6.45833C6.14625 12.0462 5.875 11.8625 5.875 11.5417V10.375C5.875 10.2203 5.81354 10.0719 5.70415 9.96252C5.59475 9.85312 5.44638 9.79167 5.29167 9.79167H5V9.20833H5.29167C5.44638 9.20833 5.59475 9.14687 5.70415 9.03748C5.81354 8.92808 5.875 8.77971 5.875 8.625V7.45833C5.875 7.30362 5.93646 7.15525 6.04585 7.04585C6.15525 6.93646 6.30362 6.875 6.45833 6.875ZM10.5417 6.875C10.6964 6.875 10.8447 6.93646 10.9541 7.04585C11.0635 7.15525 11.125 7.30362 11.125 7.45833V8.625C11.125 8.77971 11.1865 8.92808 11.2959 9.03748C11.4053 9.14687 11.5536 9.20833 11.7083 9.20833H12V9.79167H11.7083C11.5536 9.79167 11.4053 9.85312 11.2959 9.96252C11.1865 10.0719 11.125 10.2203 11.125 10.375V11.5417C11.125 11.6964 11.0635 11.8447 10.9541 11.9541C10.8447 12.0635 10.6964 12.125 10.5417 12.125H9.95833V11.5417H10.5417V10.0833C10.5417 9.92862 10.6031 9.78025 10.7125 9.67085C10.8219 9.56146 10.9703 9.5 11.125 9.5C10.9703 9.5 10.8219 9.43854 10.7125 9.32915C10.6031 9.21975 10.5417 9.07138 10.5417 8.91667V7.45833H9.95833V6.875H10.5417ZM8.5 10.375C8.57735 10.375 8.65154 10.4057 8.70624 10.4604C8.76094 10.5151 8.79167 10.5893 8.79167 10.6667C8.79167 10.744 8.76094 10.8182 8.70624 10.8729C8.65154 10.9276 8.57735 10.9583 8.5 10.9583C8.42265 10.9583 8.34846 10.9276 8.29376 10.8729C8.23906 10.8182 8.20833 10.744 8.20833 10.6667C8.20833 10.5893 8.23906 10.5151 8.29376 10.4604C8.34846 10.4057 8.42265 10.375 8.5 10.375ZM7.33333 10.375C7.41069 10.375 7.48487 10.4057 7.53957 10.4604C7.59427 10.5151 7.625 10.5893 7.625 10.6667C7.625 10.744 7.59427 10.8182 7.53957 10.8729C7.48487 10.9276 7.41069 10.9583 7.33333 10.9583C7.25598 10.9583 7.18179 10.9276 7.12709 10.8729C7.0724 10.8182 7.04167 10.744 7.04167 10.6667C7.04167 10.5893 7.0724 10.5151 7.12709 10.4604C7.18179 10.4057 7.25598 10.375 7.33333 10.375ZM9.66667 10.375C9.74402 10.375 9.81821 10.4057 9.87291 10.4604C9.9276 10.5151 9.95833 10.5893 9.95833 10.6667C9.95833 10.744 9.9276 10.8182 9.87291 10.8729C9.81821 10.9276 9.74402 10.9583 9.66667 10.9583C9.58931 10.9583 9.51513 10.9276 9.46043 10.8729C9.40573 10.8182 9.375 10.744 9.375 10.6667C9.375 10.5893 9.40573 10.5151 9.46043 10.4604C9.51513 10.4057 9.58931 10.375 9.66667 10.375Z" fill="#C5C5C5"/>
</g>
<defs>
<clipPath id="clip0_2_133">
<rect width="7" height="7" fill="white" transform="translate(5 6)"/>
</clipPath>
</defs>
</svg>
