<svg xmlns="http://www.w3.org/2000/svg" width="16" height="16" fill="none" xmlns:v="https://vecta.io/nano"><path d="M2 2h12v12H2V2zm.789 10.082c.237.502.703.918 1.507.918.889 0 1.499-.473 1.499-1.513V8.057H4.79v3.415c0 .502-.208.631-.538.631-.344 0-.488-.237-.645-.517l-.818.495zm3.551-.108c.293.581.897 1.026 1.829 1.026.953 0 1.664-.495 1.664-1.399 0-.84-.481-1.213-1.335-1.579l-.251-.107c-.431-.187-.617-.309-.617-.611 0-.243.187-.43.48-.43.287 0 .473.122.646.43l.782-.502C9.209 8.223 8.75 8 8.112 8c-.897 0-1.471.573-1.471 1.327 0 .818.48 1.206 1.205 1.514l.251.108c.459.2.731.323.731.667 0 .287-.265.495-.681.495-.495 0-.775-.259-.99-.61l-.817.473zm5.335-2.728L11.12 8h-1l1.055 2.369L10.003 13h1l.672-1.508.671 1.508h1l-1.172-2.631L13.23 8h-1l-.555 1.246h-.001z" fill="#c5c5c5"/></svg>