<svg xmlns="http://www.w3.org/2000/svg" width="16" height="16" fill="none" xmlns:v="https://vecta.io/nano"><g clip-path="url(#A)" stroke="#c5c5c5"><g stroke-linecap="round" stroke-linejoin="round"><path d="M8 3.333v11.333m0 0H6m2 0h2m4-6l-1.667-3.333-1.667 3.333m-5.333 0L3.667 5.333 2 8.667"/><path d="M2.667 5.333h.699c.843 0 1.66-.353 2.317-1C7.037 3 8.963 3 10.317 4.333c.657.647 1.475 1 2.317 1h.699m-1 6c.903 0 1.689-.556 2.098-1.377.221-.443.331-.665.13-.977s-.535-.313-1.201-.313h-2.055c-.666 0-.999 0-1.2.313s-.091.534.129.977c.409.821 1.195 1.377 2.099 1.377zm-8.667 0c.903 0 1.689-.556 2.098-1.377.221-.443.331-.665.13-.977s-.535-.313-1.201-.313H2.639c-.666 0-.999 0-1.2.313s-.091.534.129.977c.409.821 1.195 1.377 2.098 1.377z"/></g><path d="M9 2.333a1 1 0 0 1-1 1 1 1 0 0 1-1-1 1 1 0 0 1 1-1 1 1 0 0 1 1 1z" stroke-linejoin="round"/></g><defs><clipPath id="A"><path fill="#fff" d="M0 0h16v16H0z"/></clipPath></defs></svg>