<svg xmlns="http://www.w3.org/2000/svg" width="16" height="16" fill="none" xmlns:v="https://vecta.io/nano"><path d="M7 3.333c-1.503 0-2.944.597-4.007 1.66S1.333 7.497 1.333 9s.597 2.944 1.66 4.007 2.504 1.66 4.007 1.66c.744 0 1.481-.147 2.169-.431s1.312-.702 1.838-1.228.944-1.151 1.228-1.838.431-1.424.431-2.168c0-1.503-.597-2.944-1.66-4.007S8.503 3.333 7 3.333zm2 5.333c-.442 0-.866-.176-1.179-.488S7.333 7.442 7.333 7s.176-.866.488-1.179.736-.488 1.179-.488.866.176 1.178.488.488.736.488 1.179-.176.866-.488 1.179-.736.488-1.178.488zm4-7.333c-.442 0-.866.176-1.178.488s-.488.736-.488 1.179.176.866.488 1.179.736.488 1.178.488c.219 0 .436-.043.638-.127s.386-.207.541-.361.277-.339.361-.541.127-.419.127-.638c0-.442-.176-.866-.488-1.179s-.736-.488-1.178-.488z" fill="#C5C5C5"/></svg>