<svg xmlns="http://www.w3.org/2000/svg" width="16" height="16" fill="none" xmlns:v="https://vecta.io/nano"><path d="M14.75 12.01l-.8-.46a2.2 2.2 0 0 0 .045-.45c.004-.033.006-.067.005-.1.002-.184-.015-.369-.05-.55l.8-.46c.028-.016.053-.038.073-.064s.035-.056.043-.087.01-.065.006-.097-.015-.064-.032-.092l-.75-1.3c-.021-.038-.052-.069-.09-.09V3.005c-.001-.265-.106-.519-.294-.706s-.441-.293-.706-.294H2c-.265.001-.519.106-.706.294s-.293.441-.294.706V11c.001.265.106.519.294.706s.441.293.706.294h5.265l-.015.01c-.028.016-.053.038-.073.064s-.035.056-.043.087-.01.065-.006.097.015.064.032.092l.75 1.3c.016.028.038.053.064.073s.056.034.087.043.065.01.097.006.064-.015.092-.032l.8-.46a2.95 2.95 0 0 0 .95.545v.925c0 .033.006.066.018.096s.031.058.054.081a.25.25 0 0 0 .178.072h1.5a.25.25 0 0 0 .178-.072c.023-.023.042-.051.054-.081A.25.25 0 0 0 12 14.75v-.925a2.95 2.95 0 0 0 .95-.545l.8.46c.028.017.059.028.092.032s.065.002.097-.006.061-.023.087-.043.048-.045.064-.073l.75-1.3c.017-.028.028-.059.032-.092s.003-.065-.006-.097-.023-.061-.043-.087-.045-.048-.073-.064zM12 11.005c0 .163-.04.324-.117.467s-.188.267-.323.358l-.09.055a1.02 1.02 0 0 1-.94 0l-.09-.055c-.135-.091-.246-.214-.323-.358S10 11.168 10 11.005V11a1 1 0 0 1 .44-.83l.09-.055a1.02 1.02 0 0 1 .94 0l.09.055A1 1 0 0 1 12 11v.005zm1-2.315l-.05.03a2.95 2.95 0 0 0-.95-.545V7.25a.25.25 0 0 0-.018-.096c-.012-.03-.031-.058-.054-.081s-.051-.042-.081-.054S11.783 7 11.75 7h-1.5c-.033 0-.066.006-.096.018s-.058.031-.081.054-.042.051-.054.081S10 7.217 10 7.25v.925a2.95 2.95 0 0 0-.95.545l-.8-.46c-.028-.017-.059-.028-.092-.032s-.065-.003-.097.006-.061.023-.087.043-.048.045-.064.073l-.75 1.3c-.017.028-.028.059-.032.092s-.003.065.006.097.023.061.043.087.045.048.073.064l.8.46A2.8 2.8 0 0 0 8 11v.005L2 11V5.005h11V8.69z" fill="#c5c5c5"/></svg>