<svg width="16" height="16" viewBox="0 0 16 16" fill="none" xmlns="http://www.w3.org/2000/svg">
<path fill-rule="evenodd" clip-rule="evenodd" d="M4 1L3 2V14L4 15H13L14 14V5L13.7071 4.29289L10.7071 1.29289L10 1H4ZM4 14V2H9V6H13V14H4ZM13 5L10 2V5H13Z" fill="#C5C5C5"/>
<path d="M11.71 11.75H5.29C4.99375 11.75 4.75 11.5138 4.75 11.2213V7.77875C4.75 7.48625 4.99375 7.25 5.29 7.25H11.71C12.0063 7.25 12.25 7.48625 12.25 7.77875V11.2213C12.25 11.5138 12.0063 11.75 11.71 11.75ZM6.55375 10.6962V9.32375L7.27375 10.205L7.99375 9.32375V10.6962H8.7175V8.30375H7.99375L7.27375 9.185L6.55375 8.30375H5.83375V10.6962H6.55375ZM11.3838 9.5H10.6638V8.30375H9.94375V9.5H9.22L10.3038 10.73L11.3838 9.5Z" fill="#C5C5C5"/>
</svg>
