<svg xmlns="http://www.w3.org/2000/svg" width="16" height="16" fill="#C5C5C5" xmlns:v="https://vecta.io/nano"><path fill-rule="evenodd" d="M13 3.5V6h2.151l.483.629-2.634 7-.484.371H8.743c.254-.307.475-.642.657-1h2.733L14.5 7H8.743c-.218-.264-.461-.508-.724-.727l.127-.127L8.5 6H12V4H6.5l-.354-.146L5.293 3H1v3.257a5.53 5.53 0 0 0-1 1.08V2.5L.5 2h5l.354.146.853.854H12.5l.5.5z"/><path d="M4.5 6.694c-.101 0-.206.026-.293.075l-2.79 1.612a.59.59 0 0 0-.292.51v3.217a.59.59 0 0 0 .293.51l.731.42c.356.172.476.176.641.176.525 0 .829-.319.829-.874V9.165c0-.045-.038-.082-.083-.082h-.349c-.049 0-.086.037-.086.082v3.176c0 .247-.255.491-.664.285l-.769-.439c-.013-.009-.023-.021-.03-.034s-.011-.029-.011-.044V8.891c0-.034.015-.064.041-.079l2.79-1.609c.022-.015.06-.015.082 0l2.79 1.609c.026.015.041.045.041.079v3.217c0 .03-.015.06-.041.079l-2.79 1.609c-.022.015-.06.015-.086 0l-.705-.428c-.03-.011-.06-.015-.079-.004-.199.112-.236.135-.42.191-.045.015-.116.041.026.12l.93.551a.57.57 0 0 0 .293.079.57.57 0 0 0 .293-.079l2.79-1.609a.59.59 0 0 0 .293-.51V8.891a.59.59 0 0 0-.293-.51l-2.79-1.612c-.086-.049-.187-.075-.293-.075zM5.25 9c-.795 0-1.271.334-1.271.896 0 .604.473.78 1.237.855.911.09.983.225.983.405 0 .311-.251.442-.836.442-.742 0-.9-.184-.956-.551-.004-.019-.014-.036-.029-.048s-.034-.019-.053-.019h-.36c-.045 0-.079.034-.079.082 0 .465.255 1.027 1.478 1.027.881 0 1.388-.349 1.388-.956s-.405-.761-1.264-.877c-.866-.112-.952-.172-.952-.375 0-.169.075-.394.716-.394.563 0 .784.124.87.51a.08.08 0 0 0 .079.064h.364c.019 0 .041-.008.056-.026s.026-.037.019-.06C6.585 9.308 6.143 9 5.25 9z"/></svg>