<svg xmlns="http://www.w3.org/2000/svg" width="16" height="16" fill="none" xmlns:v="https://vecta.io/nano"><path d="M8 12.053c-4.42 0-8-1.813-8-4.053s3.58-4.053 8-4.053S16 5.76 16 8s-3.58 4.053-8 4.053zm-3.46-5.3c.36 0 .607.067.727.207.12.133.147.373.087.687-.067.353-.193.58-.387.727-.187.147-.473.22-.86.22h-.58l.353-1.84h.66zm-2.333 3.7h.96l.227-1.167h.82c.36 0 .653-.04.887-.113.233-.08.447-.207.64-.387.16-.147.287-.307.387-.487.1-.173.173-.373.207-.587.107-.52.033-.927-.22-1.213-.26-.293-.66-.433-1.213-.433H3.06l-.853 4.387zM7.04 4.9l-.853 4.387h.947l.493-2.513h.76c.24 0 .4.04.473.12s.087.227.047.44l-.38 1.953h.967l.393-2.047c.087-.413.02-.713-.18-.907-.2-.18-.567-.267-1.1-.267H7.76L8 4.9h-.96zM12 6.753c.367 0 .607.067.727.207.12.133.147.373.087.687-.067.353-.193.58-.38.727-.193.147-.48.22-.867.22H11l.333-1.84H12zm-2.333 3.7h.96l.227-1.167h.813c.367 0 .667-.04.9-.113.233-.08.433-.207.633-.387a1.78 1.78 0 0 0 .387-.487c.1-.173.173-.373.213-.587.1-.52.027-.927-.227-1.213-.24-.293-.66-.433-1.213-.433h-1.833l-.86 4.387z" fill="#C5C5C5"/></svg>