<svg xmlns="http://www.w3.org/2000/svg" width="16" height="16" fill="none" xmlns:v="https://vecta.io/nano"><path d="M12.667 2H3.333A1.34 1.34 0 0 0 2 3.333v9.333A1.34 1.34 0 0 0 3.333 14h9.333A1.34 1.34 0 0 0 14 12.667V3.333A1.34 1.34 0 0 0 12.667 2zM6 7.667c0 .533-.467 1-1 1h-.667V10h-1V6H5c.533 0 1 .467 1 1v.667zM9.333 10h-1l-.667-1.667V10h-1V6h1l.667 1.667V6h1v4zm3.333-3H11v2h.667V8h1v1.133c0 .467-.333.867-.867.867h-.867c-.533 0-.867-.467-.867-.867v-2.2c-.067-.467.267-.933.8-.933h.867c.533 0 .867.467.867.867V7h.067zM4.333 7H5v.667h-.667V7z" fill="#c5c5c5"/></svg>