<svg width="16" height="16" viewBox="0 0 16 16" fill="none" xmlns="http://www.w3.org/2000/svg">
<path fill-rule="evenodd" clip-rule="evenodd" d="M4 1L3 2V14L4 15H13L14 14V5L13.7071 4.29289L10.7071 1.29289L10 1H4ZM4 14V2H9V6H13V14H4ZM13 5L10 2V5H13Z" fill="#C5C5C5"/>
<path d="M10.1333 7.53333C9.8 7.2 9.4 7 8.53333 7H6V13H7.06667V10.8H8.53333C9.4 10.8 9.73333 10.6667 10.1333 10.3333C10.5333 10 10.6667 9.53333 10.6667 8.93333C10.6667 8.33333 10.5333 7.93333 10.1333 7.53333ZM9.26667 9.66667C9.06667 9.86667 8.86667 10 8.46667 10H7.06667V7.86667H8.4C8.8 7.86667 9.06667 8 9.26667 8.2C9.46667 8.4 9.53333 8.6 9.53333 8.93333C9.53333 9.26667 9.46667 9.46667 9.26667 9.66667Z" fill="#C5C5C5"/>
</svg>
