<svg xmlns="http://www.w3.org/2000/svg" width="16" height="16" fill="none" xmlns:v="https://vecta.io/nano"><path d="M14.553 2.667c.327 0 .533.267.447.593l-2.107 9.48c-.073.327-.393.593-.72.593H1.447c-.327 0-.533-.267-.447-.593l2.107-9.48c.073-.327.393-.593.72-.593h10.727zm-4 8H7.887c-.307 0-.553.253-.553.56a.56.56 0 0 0 .553.567h2.667c.313 0 .567-.253.567-.567 0-.307-.253-.56-.567-.56zm-6.7.187a.58.58 0 0 0-.24.377.58.58 0 0 0 .1.436c.187.28.56.333.827.153l4.967-3.507c.12-.107.18-.253.187-.4.007-.133-.027-.247-.107-.373l-3.28-3.52a.58.58 0 0 0-.412-.187.58.58 0 0 0-.421.167c-.24.213-.253.587-.033.827l2.767 2.96-4.353 3.067z" fill="#c5c5c5"/></svg>