<svg xmlns="http://www.w3.org/2000/svg" width="16" height="16" fill="#c5c5c5" xmlns:v="https://vecta.io/nano"><path fill-rule="evenodd" d="M1.511 2l-.5.5v3.748c.307-.252.642-.472 1-.654V3H6.3l.853.853.354.146h6.495v1.004H7.501l-.354.146-.351.351c.316.145.615.319.895.519l.017-.017h6.283v1.493h0v3.997h0v1.509H9.399a5.51 5.51 0 0 1-.658 1h5.749l.5-.5V9.006l.011-.011V3.499l-.5-.5H7.713l-.853-.853L6.507 2H1.511z"/><path d="M6 10.5a1.5 1.5 0 1 1-3 0 1.5 1.5 0 1 1 3 0z"/><path fill-rule="evenodd" d="M8 10.5a3.5 3.5 0 1 1-7 0 3.5 3.5 0 1 1 7 0zM4.5 13a2.5 2.5 0 1 0 0-5 2.5 2.5 0 1 0 0 5z"/></svg>