<svg xmlns="http://www.w3.org/2000/svg" width="16" height="16" fill="none" xmlns:v="https://vecta.io/nano"><path d="M8 1.333c.875 0 1.742.172 2.551.507s1.544.826 2.163 1.445 1.11 1.354 1.445 2.163.508 1.676.508 2.551c0 1.768-.702 3.464-1.953 4.714S9.768 14.667 8 14.667c-.875 0-1.742-.173-2.551-.508s-1.544-.826-2.163-1.445C2.036 11.464 1.333 9.768 1.333 8s.702-3.464 1.953-4.714S6.232 1.333 8 1.333zM6.667 10.22a1.7 1.7 0 0 1 0 1c0 .033-.027.067-.04.113-.013 0-.027.047-.047.08-.073.16-.18.313-.307.447-.387.427-.94.587-1.16.453-.253-.147-.113-.747.327-1.22.48-.507 1.173-.84 1.173-.84l.053-.033zm5.513-6.033C11.88 3 9.913 2.613 8.06 3.273c-1.107.393-2.307 1.007-3.167 1.813-1.02.96-1.187 1.793-1.12 2.14C4 8.453 5.693 9.26 6.387 9.853v.007c-.2.1-1.693.853-2.053 1.627-.36.813.067 1.4.333 1.48.893.24 1.793-.193 2.273-.92.467-.693.433-1.593.227-2.047.28-.067.607-.1 1.02-.053 1.173.14 1.4.867 1.353 1.173-.04.307-.287.473-.367.527-.08.047-.107.067-.1.107.007.053.047.053.113.04.1-.02.62-.247.64-.813.027-.72-.66-1.52-1.873-1.5-.5.013-.813.06-1.04.147l-.053-.06c-.753-.8-2.14-1.367-2.08-2.447.02-.393.153-1.42 2.667-2.673 2.053-1.027 3.7-.747 3.987-.113.407.887-.88 2.547-3.013 2.787-.813.093-1.247-.227-1.353-.34-.113-.113-.127-.133-.167-.113-.073.047-.027.153 0 .22.06.167.327.447.767.607.393.127 1.353.2 2.507-.247 1.293-.5 2.307-1.893 2.007-3.06z" fill="#C5C5C5"/></svg>