<svg width="16" height="16" viewBox="0 0 16 16" fill="#C5C5C5" xmlns="http://www.w3.org/2000/svg"><path fill-rule="evenodd" clip-rule="evenodd" d="M4 1L3 2V14L4 15H13L14 14V5L13.7071 4.29289L10.7071 1.29289L10 1H4ZM4 14V2H9V6H13V14H4ZM13 5L10 2V5H13Z" /><path d="M8.5 6.875C7.21083 6.875 6.16666 7.39708 6.16666 8.04167C6.16666 8.68625 7.21083 9.20833 8.5 9.20833C9.78916 9.20833 10.8333 8.68625 10.8333 8.04167C10.8333 7.39708 9.78916 6.875 8.5 6.875ZM6.16666 8.625V9.5C6.16666 10.1446 7.21083 10.6667 8.5 10.6667C9.78916 10.6667 10.8333 10.1446 10.8333 9.5V8.625C10.8333 9.26958 9.78916 9.79167 8.5 9.79167C7.21083 9.79167 6.16666 9.26958 6.16666 8.625ZM6.16666 10.0833V10.9583C6.16666 11.6029 7.21083 12.125 8.5 12.125C9.78916 12.125 10.8333 11.6029 10.8333 10.9583V10.0833C10.8333 10.7279 9.78916 11.25 8.5 11.25C7.21083 11.25 6.16666 10.7279 6.16666 10.0833Z"/></svg>