<svg xmlns="http://www.w3.org/2000/svg" width="16" height="16" fill="none" xmlns:v="https://vecta.io/nano"><path d="M11.393 13.147c-1.573.907-3.727 1-5.907.067a9.2 9.2 0 0 1-4.153-3.547c.447.367.973.667 1.533.933 2.247 1.047 4.487.973 6.067 0-2.247-1.727-4.16-3.973-5.58-5.807-.3-.3-.52-.673-.747-1.007 5.52 4.033 5.28 5.06 1.607-.673 3.26 3.293 6.287 5.16 6.287 5.16l.24.147c.067-.167.127-.34.173-.52.527-1.9-.073-4.08-1.387-5.873 3.033 1.833 4.833 5.273 4.08 8.16-.02.073-.04.147-.033.26 1.493 1.887 1.093 3.853.9 3.48-.807-1.593-2.32-1.1-3.08-.78z" fill="#c5c5c5"/></svg>