<svg width="16" height="16" viewBox="0 0 16 16" fill="none" xmlns="http://www.w3.org/2000/svg">
<path fill-rule="evenodd" clip-rule="evenodd" d="M4 1L3 2V14L4 15H13L14 14V5L13.7071 4.29289L10.7071 1.29289L10 1H4ZM4 14V2H9V6H13V14H4ZM13 5L10 2V5H13Z" fill="#C5C5C5"/>
<path d="M11.875 7.025V9.425L9.775 10.625V8.2625L11.875 7.025ZM9.55 8.2625V10.625L7.45 9.425V7.025L9.55 8.2625ZM9.55 10.8875V13.2875L7.45 12.0875V9.6875L9.55 10.8875ZM7.225 6.9125V9.3125L5.125 8.1125V5.7125L7.225 6.9125Z" fill="#C5C5C5"/>
</svg>
