<svg xmlns="http://www.w3.org/2000/svg" width="16" height="16" fill="none" xmlns:v="https://vecta.io/nano"><path d="M2 2h12v12H2V2zm7.14 9.907c.333.653 1.007 1.153 2.06 1.153 1.067 0 1.867-.553 1.867-1.573 0-.94-.54-1.36-1.5-1.773l-.28-.12c-.487-.207-.693-.347-.693-.68 0-.273.207-.487.54-.487.32 0 .533.14.727.487l.873-.58c-.367-.64-.887-.887-1.6-.887-1.007 0-1.653.64-1.653 1.487 0 .92.54 1.353 1.353 1.7l.28.12c.52.227.827.367.827.753 0 .32-.3.553-.767.553-.553 0-.873-.287-1.113-.687l-.92.533zM8.667 7.5H5.333v1h1v4.833H7.5V8.5h1.167v-1z" fill="#C5C5C5"/></svg>