<svg width="16" height="16" viewBox="0 0 16 16" fill="none" xmlns="http://www.w3.org/2000/svg">
<path fill-rule="evenodd" clip-rule="evenodd" d="M4 1L3 2V14L4 15H13L14 14V5L13.7071 4.29289L10.7071 1.29289L10 1H4ZM4 14V2H9V6H13V14H4ZM13 5L10 2V5H13Z" fill="#C5C5C5"/>
<g clip-path="url(#clip0_2_118)">
<path d="M5.58333 6.875H6.60417L8.5 10.375L10.3958 6.875H11.4167L8.5 12.125L5.58333 6.875ZM6.89583 6.875H7.77083L8.5 8.21083L9.22917 6.875H10.1042L8.5 9.815L6.89583 6.875Z" fill="#C5C5C5"/>
</g>
<defs>
<clipPath id="clip0_2_118">
<rect width="7" height="7" fill="white" transform="translate(5 6)"/>
</clipPath>
</defs>
</svg>
