<svg xmlns="http://www.w3.org/2000/svg" width="16" height="16" fill="none" xmlns:v="https://vecta.io/nano"><g clip-path="url(#A)"><path d="M7.369.654L4.499 4.957v2.727H2.741V4.957L0 .654h1.977l1.743 2.77L5.476.654h1.892zm2.953 5.466H7.139l-.647 1.563h-1.41L8.062.654h1.442l2.86 7.03h-1.506l-.536-1.563zm-.529-1.398l-.976-2.58-1.089 2.58h2.064zM2.741 8.456v6.89h1.478v-4.752l1.547 3.194h1.164l1.6-3.307v4.863h1.418V8.456H8.011l-1.718 3.116-1.636-3.116H2.741zM16 13.85h-3.636V8.456h-1.506v6.86H16V13.85z" fill="#c5c5c5"/></g><defs><clipPath id="A"><path fill="#fff" d="M0 0h16v16H0z"/></clipPath></defs></svg>