<svg xmlns="http://www.w3.org/2000/svg" width="16" height="16" fill="none" xmlns:v="https://vecta.io/nano"><path d="M10.3 10.647l.28 1.627c-.173.093-.453.18-.827.26-.38.087-.827.133-1.34.133-1.473-.027-2.58-.467-3.32-1.307-.76-.847-1.12-1.92-1.12-3.22.027-1.54.48-2.72 1.36-3.547.853-.833 1.947-1.26 3.267-1.26.5 0 .933.047 1.293.127s.627.167.8.267l-.4 1.66L9.6 5.16c-.267-.067-.58-.1-.933-.1-.767-.007-1.407.24-1.907.733-.507.487-.76 1.233-.787 2.227.007.907.247 1.613.72 2.133.473.513 1.133.78 1.993.787l.887-.08c.287-.053.527-.127.727-.213z" fill="#424242"/></svg>