<svg width="16" height="16" viewBox="0 0 16 16" fill="none" xmlns="http://www.w3.org/2000/svg">
<g clip-path="url(#clip0_5_36)">
<path d="M7 10.6467L7.27333 12.2733C7.1 12.3667 6.82 12.4533 6.44667 12.5333C6.06667 12.62 5.62 12.6667 5.10667 12.6667C3.63333 12.64 2.52667 12.2 1.78667 11.36C1.04 10.5133 0.666668 9.44 0.666668 8.14C0.700001 6.6 1.14667 5.42 2 4.59333C2.88 3.76 3.97333 3.33333 5.29333 3.33333C5.79333 3.33333 6.22667 3.38 6.58667 3.46C6.94667 3.54 7.21333 3.62667 7.38667 3.72667L7 5.38667L6.29333 5.16C6.02667 5.09333 5.72 5.06 5.36667 5.06C4.59333 5.05333 3.95333 5.3 3.45333 5.79333C2.94667 6.28 2.68667 7.02667 2.66667 8.02C2.66667 8.92667 2.91333 9.63333 3.38667 10.1533C3.86 10.6667 4.52667 10.9333 5.38 10.94L6.26667 10.86C6.55333 10.8067 6.79333 10.7333 7 10.6467ZM7.33333 7.33333H8.66667V6H10V7.33333H11.3333V8.66667H10V10H8.66667V8.66667H7.33333V7.33333ZM12 7.33333H13.3333V6H14.6667V7.33333H16V8.66667H14.6667V10H13.3333V8.66667H12V7.33333Z" fill="#424242"/>
</g>
<defs>
<clipPath id="clip0_5_36">
<rect width="16" height="16" fill="white"/>
</clipPath>
</defs>
</svg>
