<svg xmlns="http://www.w3.org/2000/svg" width="16" height="16" fill="none" xmlns:v="https://vecta.io/nano"><path d="M3.833 10h2V9H4.167V7h1.667V6h-2c-.189 0-.347.064-.475.192s-.192.286-.192.475v2.667c0 .189.064.347.192.475s.286.192.475.191zm2.6 0h2c.189 0 .347-.064.475-.192s.192-.286.191-.475v-1c0-.189-.064-.364-.192-.525s-.286-.242-.475-.241h-1V7H9.1V6h-2c-.189 0-.347.064-.475.192s-.192.286-.192.475v1c0 .189.064.358.192.509s.286.225.475.225h1V9H6.433v1zm4.4 0h1L13 6h-1l-.667 2.3-.667-2.3h-1l1.167 4zm-8.167 3.333c-.367 0-.68-.13-.941-.391s-.392-.575-.392-.942V4a1.28 1.28 0 0 1 .392-.941c.261-.261.575-.392.941-.392h10.667c.367 0 .681.131.942.392a1.28 1.28 0 0 1 .391.941v8c0 .367-.131.681-.391.942a1.28 1.28 0 0 1-.942.391H2.667z" fill="#424242"/></svg>