<svg xmlns="http://www.w3.org/2000/svg" width="16" height="16" fill="none" xmlns:v="https://vecta.io/nano"><path fill-rule="evenodd" d="M13 3.5V6h2.151l.483.629-2.634 7-.484.371H8.743c.254-.307.475-.642.657-1h2.733L14.5 7H8.743c-.218-.264-.461-.508-.724-.727l.127-.127L8.5 6H12V4H6.5l-.354-.146L5.293 3H1v3.257a5.53 5.53 0 0 0-1 1.08V2.5L.5 2h5l.354.146.853.854H12.5l.5.5z" fill="#424242"/><g clip-path="url(#A)"><path d="M4.5 6.75a3.75 3.75 0 0 0-2.652 1.098A3.75 3.75 0 0 0 .75 10.5a3.76 3.76 0 0 0 2.565 3.563c.188.03.248-.086.248-.187v-.634c-1.039.225-1.26-.502-1.26-.502-.173-.435-.416-.551-.416-.551-.341-.232.026-.225.026-.225.375.026.574.386.574.386.326.57.878.401 1.091.311.034-.244.131-.409.236-.502-.832-.094-1.706-.416-1.706-1.845a1.45 1.45 0 0 1 .386-1.016c-.038-.094-.169-.484.038-.99 0 0 .315-.101 1.031.383.296-.083.619-.124.938-.124s.641.041.938.124c.716-.484 1.031-.383 1.031-.383.206.506.075.896.037.99a1.45 1.45 0 0 1 .386 1.016c0 1.432-.878 1.748-1.714 1.841.135.116.259.345.259.694v1.027c0 .101.06.221.251.188A3.76 3.76 0 0 0 8.25 10.5a3.75 3.75 0 0 0-1.098-2.652A3.75 3.75 0 0 0 4.5 6.75z" fill="#424242"/></g><defs><clipPath id="A"><path fill="#fff" transform="translate(0 6)" d="M0 0h9v9H0z"/></clipPath></defs></svg>