<svg xmlns="http://www.w3.org/2000/svg" width="16" height="16" fill="#424242" xmlns:v="https://vecta.io/nano"><path d="M9.707 1.293l3 3L13 5v9l-1 1h-2v-1h2V6H8V2H3v8H2V2l1-1h6l.707.293zM9 5h3L9 2v3zm-6.308 6.446v.615h-.733v2.321h.733V15H.385v-.618h.733v-2.321H.385v-.615h2.308zM4.866 15l-.936-2.859.038.28.044.362.033.421.013.456V15h-.715v-3.554h1.049L5.3 14.29l-.059-.385-.049-.502-.021-.595v-1.362h.715V15h-1.02zm3.979-3.554v.615h-.733v2.321h.733V15H6.537v-.618h.733v-2.321h-.733v-.615h2.308z"/></svg>