<svg xmlns="http://www.w3.org/2000/svg" width="16" height="16" fill="none" xmlns:v="https://vecta.io/nano"><path d="M12.667 2H3.333A1.34 1.34 0 0 0 2 3.333v9.333A1.34 1.34 0 0 0 3.333 14h9.333A1.34 1.34 0 0 0 14 12.667V3.333A1.34 1.34 0 0 0 12.667 2zM6 9c0 .733-.6 1-1.333 1s-1.333-.267-1.333-1V8h1v1H5V6h1v3zm3.333-1.333c0 .533-.467 1-1 1h-.667V10h-1V6h1.667c.533 0 1 .467 1 1v.667zM12.667 7H11v2h.667V8h1v1.133c0 .467-.333.867-.867.867h-.867c-.533 0-.867-.467-.867-.867v-2.2c-.067-.467.267-.933.8-.933h.867c.533 0 .867.467.867.867V7M7.667 7h.667v.667h-.667V7z" fill="#424242"/></svg>