<svg xmlns="http://www.w3.org/2000/svg" width="16" height="16" fill="#424242" xmlns:v="https://vecta.io/nano"><path d="M9.707 1.293l3 3L13 5v9l-1 1h-2v-1h2V6H8V2H3v8H2V2l1-1h6l.707.293zm1.168 8.582h-6.75v-.75h6.75v.75zm0-1.875h-6.75v-.75h6.75V8zM9 5h3L9 2v3zM.477 15v-3.554h.841v2.89h1.541L2.772 15H.477zm5.561-1.78c0 .376-.054.704-.162.985s-.268.496-.479.651-.471.231-.782.231-.57-.075-.782-.226a1.37 1.37 0 0 1-.479-.646c-.107-.279-.162-.61-.162-.995 0-.376.054-.703.162-.982a1.4 1.4 0 0 1 .479-.649c.212-.155.473-.233.782-.233s.572.075.782.226a1.38 1.38 0 0 1 .479.643 2.77 2.77 0 0 1 .162.995zm-.862 0c0-.438-.044-.755-.131-.954s-.231-.297-.431-.297-.344.1-.431.3-.131.515-.131.951.044.756.133.954.232.297.428.297c.205 0 .35-.1.433-.3s.128-.519.128-.951zm2.645 1.867c-.337 0-.621-.071-.851-.213s-.406-.354-.526-.631-.177-.621-.177-1.028a2.34 2.34 0 0 1 .126-.8 1.62 1.62 0 0 1 .354-.582 1.49 1.49 0 0 1 .526-.356 1.72 1.72 0 0 1 .646-.12c.26 0 .479.04.656.12s.336.186.474.318l-.441.456a1.31 1.31 0 0 0-.31-.213c-.099-.046-.212-.069-.338-.069a.76.76 0 0 0-.331.072c-.101.048-.186.12-.262.22s-.131.228-.172.387-.062.348-.062.572a2.93 2.93 0 0 0 .074.739c.051.183.128.315.231.395s.232.118.39.118a.95.95 0 0 0 .236-.028c.074-.021.142-.047.205-.079v-.813h-.446l-.082-.59h1.323v1.767a2.57 2.57 0 0 1-.574.261 2.19 2.19 0 0 1-.669.098z"/></svg>