<svg xmlns="http://www.w3.org/2000/svg" width="16" height="16" fill="#424242" xmlns:v="https://vecta.io/nano"><path fill-rule="evenodd" d="M4 1L3 2v12l1 1h9l1-1V5l-.293-.707-3-3L10 1H4zm0 13V2h5v4h4v8H4zm9-9l-3-3v3h3z"/><path d="M7.616 8.18c-.16-.513-.513-2.153.42-2.18s.32 2.08.32 2.08c.26.993 1.347 1.707 1.347 1.707.333-.1 2.233-.32 1.967.667-.287.987-2.333.06-2.333.06-1.3.093-2.273.44-2.273.44-.753 1.407-1.633 2.02-1.993 1.427-.447-.74 1.42-1.693 1.42-1.693.967-1.567 1.113-2.48 1.127-2.507zm.433.56c-.267.867-.8 1.793-.8 1.793.567-.227 1.807-.487 1.807-.487-.76-.667-.993-1.3-1.007-1.307zm2.093 1.447s1.167.433 1.193.26c.047-.18-.887-.34-1.193-.26zm-3.773.993c-.513.2-1.007 1.053-.887 1.053.12.007.607-.4.887-1.053zm1.68-3.7c0-.033.287-1.12 0-1.153-.2-.02-.007 1.127 0 1.153z"/></svg>