<svg xmlns="http://www.w3.org/2000/svg" width="16" height="16" fill="none" xmlns:v="https://vecta.io/nano"><path d="M12.76 5c.506 0 .991.201 1.348.558s.559.843.559 1.348v2.52c0 .25-.049.498-.145.73s-.236.441-.413.619-.387.317-.619.413-.479.145-.73.145H8c0 .26.213.64.473.64h2.86v1.12c0 .506-.201.991-.558 1.348S9.932 15 9.427 15H6.573c-.506 0-.991-.201-1.348-.558s-.558-.843-.558-1.348v-2.5a1.9 1.9 0 0 1 .559-1.346 1.9 1.9 0 0 1 1.348-.554h3.5a1.9 1.9 0 0 0 1.346-.559 1.9 1.9 0 0 0 .554-1.348V5h.787zm-2.853 7.86c-.267 0-.48.2-.48.593s.213.473.48.473c.062 0 .124-.012.181-.036a.47.47 0 0 0 .154-.103c.044-.044.079-.096.103-.154s.036-.119.036-.181c0-.393-.213-.593-.473-.593zM3.24 11.667c-.506 0-.991-.201-1.348-.559s-.558-.842-.558-1.348V7.24c0-.25.049-.498.145-.73s.236-.442.413-.619c.358-.358.843-.558 1.348-.558H8c0-.26-.213-.64-.473-.64h-2.86v-1.12c0-.506.201-.991.558-1.348s.843-.558 1.348-.558h2.853c.25 0 .498.049.73.145a1.91 1.91 0 0 1 .619.413c.177.177.317.387.413.619s.145.479.145.73v2.5a1.9 1.9 0 0 1-.559 1.346 1.9 1.9 0 0 1-1.348.554h-3.5a1.9 1.9 0 0 0-1.346.559 1.9 1.9 0 0 0-.554 1.348v1.787H3.24zm2.853-7.86c.267 0 .48-.2.48-.593s-.213-.473-.48-.473c-.26 0-.473.08-.473.473s.213.593.473.593z" fill="#424242"/></svg>