<svg xmlns="http://www.w3.org/2000/svg" width="16" height="16" fill="none" xmlns:v="https://vecta.io/nano"><path d="M14.6 7.8l-.6-.333v-.133l.467-.467c.067-.067.067-.2 0-.267l-.067-.067-.6-.2c0-.067 0-.133-.067-.133l.4-.533c.067-.067.067-.2-.067-.267 0 0-.067 0-.067-.067l-.667-.133c0-.067-.067-.067-.067-.133l.267-.6v-.2c-.067-.067-.133-.067-.2-.067h-.667s0-.067-.067-.067l.133-.667c0-.133-.067-.2-.133-.2h-.067l-.667.133c0-.067-.067-.067-.133-.133V2.6c0-.133-.067-.2-.2-.2h-.067l-.6.267H10.8L10.667 2c0-.133-.133-.2-.2-.133H10.4l-.533.4c-.067 0-.133 0-.133-.067l-.2-.6c-.067-.067-.133-.133-.267-.133 0 0-.067 0-.067.067L8.667 2h-.133L8.2 1.467c-.067-.133-.2-.133-.333-.133L7.8 1.4l-.333.6h-.133l-.467-.467c-.067-.067-.2-.067-.267 0l-.067.067-.2.6c-.067 0-.133 0-.133.067l-.533-.4c-.133-.067-.267-.067-.333.067V2l-.133.667s-.067 0-.133.067l-.6-.267c-.067-.067-.2 0-.267.067v.733c0 .067-.067.067-.067.133l-.667-.133c-.133-.067-.2 0-.2.133v.067l.133.667c-.067 0-.067.067-.133.067H2.6c-.133 0-.2.067-.2.2v.067l.267.6V5.2L2 5.333c-.133 0-.2.133-.2.2V5.6l.4.533c0 .067 0 .133-.067.133l-.533.267c-.067.067-.133.133-.133.267 0 0 0 .067.067.067L2 7.333v.133l-.533.333c-.133.067-.133.2-.133.267l.067.067.6.4v.133l-.467.467c-.067.067-.067.2 0 .267l.067.067.6.2c0 .067 0 .133.067.133l-.4.533c-.067.067-.067.2.067.267 0 0 .067 0 .067.067l.667.133c0 .067.067.067.067.133l-.267.6c-.067.067 0 .2.067.267h.733c.067 0 .067.067.133.067l-.133.667c0 .133.067.2.133.2h.067l.667-.133c0 .067.067.067.133.133v.667c0 .133.067.2.2.2h.067l.6-.267H5.2l.133.667c0 .133.133.2.2.133H5.6l.533-.4c.067 0 .133 0 .133.067l.2.6c.067.067.133.133.267.133 0 0 .067 0 .067-.067L7.333 14h.133l.333.533c.067.067.2.133.267.067l.067-.067.333-.533H8.6l.467.467c.067.067.2.067.267 0L9.4 14.4l.2-.6c.067 0 .133 0 .133-.067l.533.4c.067.067.2.067.267-.067 0 0 0-.067.067-.067l.133-.667c.067 0 .067-.067.133-.067l.6.267c.067.067.2 0 .267-.067v-.733l.133-.133.667.133c.133 0 .2-.067.2-.133v-.067l-.133-.667.133-.133h.667c.133 0 .2-.067.2-.2v-.067l-.267-.6c0-.067.067-.067.067-.133l.667-.133c.133 0 .2-.133.133-.2v-.067l-.4-.533.067-.133.6-.2c.067-.067.133-.133.133-.267 0 0 0-.067-.067-.067L14 8.667v-.133l.533-.333c.133-.067.133-.2.067-.4 0 .067 0 .067 0 0zm-3.8 4.667a.5.5 0 0 1-.333-.467.5.5 0 0 1 .467-.333.5.5 0 0 1 .333.467c0 .267-.2.4-.467.333zm-.133-1.267c-.2-.067-.4.067-.4.267L10 12.4a4.87 4.87 0 0 1-2 .4c-.733 0-1.4-.133-2.067-.467l-.2-.933c-.067-.2-.2-.333-.4-.267l-.8.2c-.133-.133-.267-.333-.4-.467h4c.067 0 .067 0 .067-.067V9.4c0-.067 0-.067-.067-.067H7v-.867h1.267c.133 0 .6 0 .8.667.067.2.133.867.267 1.067.067.2.4.667.733.667h2.067c-.133.2-.267.333-.467.533l-1-.2zm-5.533 1.267c-.2.067-.4-.067-.467-.333-.067-.2.067-.4.333-.467s.4.067.467.333a.5.5 0 0 1-.333.467zM3.6 6.333c.067.2 0 .467-.2.533s-.467 0-.533-.2 0-.467.2-.533c.267-.067.467 0 .533.2zM3.133 7.4L4 7.067c.2-.067.267-.267.2-.467L4 6.2h.667v3.133H3.333c-.2-.667-.267-1.267-.2-1.933zm3.733-.267V6.2h1.667c.067 0 .6.067.6.467 0 .333-.4.467-.733.467H6.867zm6 .8v.333h-.533c-.067 0-.067 0-.067.067v.2c0 .533-.333.667-.6.667s-.533-.133-.6-.267c-.133-.867-.4-1-.8-1.333.467-.333 1-.8 1-1.4 0-.667-.467-1.067-.733-1.267-.467-.267-.933-.333-1.067-.333H4.4c.733-.8 1.667-1.333 2.733-1.533l.6.667c.133.133.333.133.533 0l.667-.667c1.4.267 2.6 1.133 3.333 2.4L11.8 6.533c-.067.2 0 .4.2.467l.867.4v.533zM7.733 2.6c.133-.133.4-.133.533 0s.133.4 0 .533a.37.37 0 0 1-.6 0C7.533 3 7.6 2.8 7.733 2.6zm4.6 3.733c.067-.2.333-.267.533-.2s.267.333.2.533-.333.267-.533.2-.267-.333-.2-.533z" fill="#424242"/></svg>