<svg xmlns="http://www.w3.org/2000/svg" width="16" height="16" fill="#424242" xmlns:v="https://vecta.io/nano"><path fill-rule="evenodd" d="M4 1L3 2v12l1 1h9l1-1V5l-.293-.707-3-3L10 1H4zm0 13V2h5v4h4v8H4zm9-9l-3-3v3h3z"/><path d="M6.496 9.124h1.091l-.773-.773c-.295 0-.534-.239-.534-.537 0-.142.056-.277.156-.377s.236-.156.377-.156c.298 0 .537.239.537.534l.773.773V7.496c-.1-.101-.155-.236-.155-.378s.056-.277.155-.378a.53.53 0 0 1 .376-.158.53.53 0 0 1 .376.158c.207.207.207.545 0 .755v1.091l.776-.773c0-.142.056-.277.156-.377s.236-.156.377-.156.277.056.377.156.156.236.156.377c0 .298-.239.537-.534.537l-.773.773h1.091c.1-.1.236-.155.378-.155s.277.056.378.155a.53.53 0 0 1 0 .753c-.207.207-.545.207-.755 0H9.413l.773.776a.53.53 0 0 1 .534.534c0 .142-.056.277-.156.377s-.236.156-.377.156a.53.53 0 0 1-.534-.534l-.776-.773v1.091c.207.21.207.548 0 .755a.53.53 0 0 1-.753 0c-.1-.101-.155-.236-.155-.378s.056-.277.155-.378v-1.091l-.773.773c0 .295-.239.534-.537.534-.142 0-.277-.056-.377-.156s-.156-.236-.156-.377.056-.277.156-.377.236-.156.377-.156l.773-.776H6.496c-.21.207-.548.207-.755 0a.53.53 0 0 1-.158-.376.53.53 0 0 1 .158-.376c.101-.1.236-.155.378-.155s.277.056.378.155z"/></svg>