<svg width="16" height="16" viewBox="0 0 16 16" fill="none" xmlns="http://www.w3.org/2000/svg">
<g clip-path="url(#clip0_6_125)">
<path d="M7.36853 0.654343L4.49931 4.95666V7.684H2.74069V4.95666L0 0.654343H1.97656L3.71931 3.42453L5.47634 0.654343H7.36853ZM10.3217 6.12075H7.13853L6.49113 7.684H5.08156L8.06219 0.654343H9.50397L12.3637 7.684H10.8575L10.3217 6.12075ZM9.79294 4.72281L8.81713 2.14312L7.72847 4.72281H9.79294ZM2.74066 8.45594V15.3456H4.21887V10.5932L5.76591 13.7876H6.92947L8.52934 10.4809V15.3442H9.94744V8.45594H8.01119L6.29316 11.5717L4.65691 8.45594H2.74066ZM16 13.85H12.3637V8.45594H10.8576V15.316H16V13.85Z" fill="#424242"/>
</g>
<defs>
<clipPath id="clip0_6_125">
<rect width="16" height="16" fill="white"/>
</clipPath>
</defs>
</svg>
